<svg width="66" height="30" viewBox="0 0 66 30" fill="none" xmlns="http://www.w3.org/2000/svg">
<path d="M2.89757 5.66661C2.89757 5.66661 2.27966 2.52435 3.03169 0C3.03169 0 5.34528 0.21316 7.92711 1.88967L2.89518 5.66661H2.89757Z" fill="#333333"/>
<path d="M17.3515 5.66661C17.3515 5.66661 17.9694 2.52435 17.2174 0C17.2174 0 14.9038 0.21316 12.322 1.88967L17.3539 5.66661H17.3515Z" fill="#333333"/>
<path d="M0.473889 8.78955H3.09404C3.22234 8.78955 3.32635 8.68608 3.32635 8.55844C3.32635 8.4308 3.22234 8.32731 3.09404 8.32731H0.473889C0.345584 8.32731 0.241572 8.4308 0.241572 8.55844C0.241572 8.68608 0.345584 8.78955 0.473889 8.78955Z" fill="#333333"/>
<path d="M0.666287 7.19906L3.15075 8.03131C3.27241 8.07206 3.4039 8.00698 3.44445 7.88595C3.48499 7.76491 3.41923 7.63377 3.29757 7.59301L0.81311 6.76076C0.69145 6.72 0.55996 6.78508 0.519415 6.90611C0.478871 7.02714 0.544627 7.1583 0.666287 7.19906Z" fill="#333333"/>
<path d="M3.15232 9.08468L0.667857 9.91693C0.546196 9.95768 0.480436 10.0888 0.52098 10.2099C0.561524 10.3309 0.693019 10.396 0.814679 10.3552L3.29914 9.52298C3.4208 9.48222 3.48656 9.35106 3.44601 9.23003C3.40547 9.10899 3.27398 9.04392 3.15232 9.08468Z" fill="#333333"/>
<path d="M19.5958 8.32507H16.9756C16.8473 8.32507 16.7433 8.42854 16.7433 8.55618C16.7433 8.68383 16.8473 8.78731 16.9756 8.78731H19.5958C19.7241 8.78731 19.8281 8.68383 19.8281 8.55618C19.8281 8.42854 19.7241 8.32507 19.5958 8.32507Z" fill="#333333"/>
<path d="M19.2609 6.75637L16.7764 7.58862C16.6548 7.62938 16.589 7.76054 16.6296 7.88157C16.6701 8.0026 16.8016 8.06768 16.9233 8.02692L19.4077 7.19467C19.5294 7.15391 19.5951 7.02277 19.5546 6.90173C19.5141 6.7807 19.3826 6.71562 19.2609 6.75637Z" fill="#333333"/>
<path d="M16.773 9.52438L19.2575 10.3566C19.3792 10.3974 19.5106 10.3323 19.5512 10.2113C19.5917 10.0902 19.526 9.95908 19.4043 9.91833L16.9199 9.08608C16.7982 9.04532 16.6667 9.11041 16.6262 9.23144C16.5856 9.35247 16.6514 9.48362 16.773 9.52438Z" fill="#333333"/>
<path d="M18.4965 9.37874V9.37396C18.4965 7.06038 17.6798 5.07251 16.0464 3.41276C14.413 1.75301 12.4563 0.921936 10.1738 0.921936C7.76685 0.921936 5.72869 1.74103 4.06415 3.37683C2.39961 5.01263 1.56854 7.01248 1.56854 9.37396C1.56854 11.7355 2.39482 13.7065 4.04739 15.3591C5.69037 17.0021 7.67105 17.826 9.98943 17.8379H13.5867V13.0814H10.0325C9.05776 13.0814 8.21951 12.7198 7.52495 11.9965C6.828 11.2732 6.48072 10.399 6.48072 9.37635C6.48072 8.35367 6.828 7.47949 7.52016 6.7562C8.21232 6.0329 9.05058 5.67126 10.0349 5.67126C11.0193 5.67126 11.8671 6.03052 12.5545 6.75142C13.2419 7.47232 13.5867 8.34649 13.5867 9.37874V9.38354V18.9253V21.5431V21.5478C13.5867 22.5705 13.2395 23.4447 12.5473 24.168C11.8551 24.8913 11.0169 25.2529 10.0325 25.2529C9.04818 25.2529 8.20035 24.8937 7.51298 24.1728C6.82561 23.4519 6.48072 22.5777 6.48072 21.5454C6.48072 20.8389 6.24122 20.2354 5.75982 19.7348C5.27843 19.2342 4.70123 18.9852 4.02583 18.9852C3.35044 18.9852 2.76126 19.2343 2.28465 19.7324C1.80804 20.2306 1.57094 20.8341 1.57094 21.5478C1.57094 23.8614 2.38764 25.8493 4.02104 27.509C5.65444 29.1688 7.61117 29.9999 9.89363 29.9999C12.3006 29.9999 14.3388 29.1808 16.0033 27.545C17.6679 25.9092 18.4989 23.9093 18.4989 21.5478V21.5431V18.9253V9.38354L18.4965 9.37874Z" fill="#6BBDDD"/>
<path d="M32.1915 8.1541C31.8331 7.91267 31.3037 7.64309 30.6043 7.34428C29.6494 6.95885 29.172 6.50305 29.172 5.97688C29.172 5.71055 29.264 5.48211 29.4491 5.2894C29.6332 5.09669 29.853 5.00033 30.1085 5.00033C30.4398 5.00033 31.0894 5.29698 31.844 5.74195C32.0031 5.83614 32.1893 5.89244 32.3885 5.89244C32.9764 5.89244 33.4539 5.41607 33.4539 4.8271C33.4539 4.49689 33.3034 4.20241 33.0674 4.00645C33.0555 3.9967 33.0414 3.98697 33.0284 3.97722C32.2067 3.35036 31.3535 2.98226 30.1897 2.98226C29.1915 2.98226 28.3827 3.27782 27.7634 3.87003C27.1453 4.46116 26.8356 5.23202 26.8356 6.18151C26.8356 6.61024 26.932 7.02922 27.1247 7.43955C27.3174 7.84879 27.5545 8.16168 27.8371 8.37605C28.1196 8.59041 28.5971 8.81994 29.2694 9.0657C30.4473 9.49118 31.0363 9.98271 31.0363 10.5403C31.0363 10.8109 30.9086 11.0697 30.6541 11.3155C30.3986 11.5623 30.1215 11.6359 29.8443 11.6359C29.4686 11.6229 29.3257 11.6511 28.7324 11.1595C28.7303 11.1574 28.7281 11.1563 28.7259 11.1541C28.7205 11.1487 28.7151 11.1455 28.7086 11.1401C28.5105 10.9852 28.2615 10.8911 27.9908 10.8911C27.3488 10.8911 26.828 11.4118 26.828 12.0538C26.828 12.4241 27.0023 12.7532 27.2719 12.9665C27.8327 13.4245 28.334 13.8705 29.7187 13.9647C30.7256 14.0329 31.6036 13.6258 32.3442 12.947C33.0847 12.2682 33.455 11.4714 33.455 10.5543C33.455 10.0552 33.3337 9.59078 33.0923 9.16205C32.8508 8.73332 32.5509 8.39878 32.1926 8.15627L32.1915 8.1541Z" fill="#333333"/>
<path d="M55.998 12.7781V7.11474C55.998 7.11474 55.998 7.10499 55.998 7.09958C55.998 4.82708 54.1553 2.98441 51.8828 2.98441C49.6103 2.98441 47.7676 4.82708 47.7676 7.09958C47.7676 9.37207 49.6103 11.2147 51.8828 11.2147C52.4956 11.2147 53.077 11.0794 53.5999 10.8391V12.7781H53.601C53.6021 12.9622 53.6454 13.1484 53.7363 13.3216C54.0427 13.9084 54.767 14.1358 55.3527 13.8294C55.7587 13.6172 55.9926 13.2057 55.9969 12.7781H55.998ZM51.8839 9.04511C50.8088 9.04511 49.9383 8.17357 49.9383 7.09958C49.9383 6.02558 50.8099 5.15405 51.8839 5.15405C52.9579 5.15405 53.8294 6.02558 53.8294 7.09958C53.8294 8.17357 52.9579 9.04511 51.8839 9.04511Z" fill="#333333"/>
<path d="M65.8967 12.7781V7.11474C65.8967 7.11474 65.8967 7.10499 65.8967 7.09958C65.8967 4.82708 64.054 2.98441 61.7815 2.98441C59.509 2.98441 57.6664 4.82708 57.6664 7.09958C57.6664 9.37207 59.509 11.2147 61.7815 11.2147C62.3943 11.2147 62.9757 11.0794 63.4986 10.8391V12.7781H63.4997C63.5008 12.9622 63.5441 13.1484 63.635 13.3216C63.9414 13.9084 64.6657 14.1358 65.2514 13.8294C65.6574 13.6172 65.8913 13.2057 65.8956 12.7781H65.8967ZM61.7826 9.04511C60.7075 9.04511 59.8371 8.17357 59.8371 7.09958C59.8371 6.02558 60.7086 5.15405 61.7826 5.15405C62.8566 5.15405 63.7281 6.02558 63.7281 7.09958C63.7281 8.17357 62.8566 9.04511 61.7826 9.04511Z" fill="#333333"/>
<path d="M40.6102 2.98441C37.5777 2.98441 35.1201 5.44312 35.1201 8.47455C35.1201 11.506 37.5788 13.9647 40.6102 13.9647C43.6417 13.9647 46.1004 11.506 46.1004 8.47455C46.1004 5.44312 43.6417 2.98441 40.6102 2.98441ZM40.6102 11.7972C38.7751 11.7972 37.2887 10.3097 37.2887 8.47563C37.2887 6.64162 38.7762 5.15405 40.6102 5.15405C42.4443 5.15405 43.9318 6.64162 43.9318 8.47563C43.9318 10.3097 42.4443 11.7972 40.6102 11.7972Z" fill="#333333"/>
<path d="M38.1366 26.8164C38.0492 26.7291 38.0051 26.6103 38.0051 26.4611C38.0051 26.3118 38.0492 26.193 38.1366 26.1057C38.224 26.0183 38.3565 25.9741 38.5313 25.9741H38.8631C39.0319 25.9741 39.1164 25.8828 39.1164 25.7012V23.6347H38.1906C38.1513 24.7528 38.0119 25.6168 37.7714 26.2274C37.7125 26.3894 37.6575 26.5082 37.6055 26.5828C37.5535 26.6574 37.5083 26.7143 37.469 26.7536C37.3718 26.8508 37.2639 26.8999 37.147 26.8999C36.985 26.8999 36.8613 26.8577 36.7769 26.7732C36.6925 26.6888 36.6503 26.5681 36.6503 26.4129C36.6503 26.3089 36.7445 26.036 36.933 25.5942C37.147 25.0739 37.255 24.1707 37.255 22.8846V19.2483C37.255 18.9234 37.3365 18.6799 37.4985 18.5169C37.6605 18.3549 37.8912 18.2735 38.1906 18.2735H39.1262C39.4511 18.2735 39.6917 18.351 39.8478 18.5071C39.9842 18.6436 40.0529 18.8487 40.0529 19.1217V25.8867C40.0529 26.251 39.9685 26.52 39.7997 26.6957C39.6308 26.8645 39.3638 26.949 39.0005 26.949H38.5322C38.3565 26.949 38.225 26.9048 38.1376 26.8174L38.1366 26.8164ZM39.1164 22.7177V21.411H38.2093L38.1994 22.7177H39.1154H39.1164ZM39.1164 19.4427C39.1164 19.2807 39.0349 19.1992 38.8729 19.1992H38.4144C38.3428 19.1992 38.2937 19.2189 38.2682 19.2581C38.2289 19.3102 38.2093 19.424 38.2093 19.5998V20.4971H39.1164V19.4447V19.4427ZM40.5487 21.1872V18.6239C40.5487 18.4158 40.5978 18.2636 40.695 18.1655C40.7794 18.081 40.8933 18.0388 41.0366 18.0388C41.18 18.0388 41.3027 18.081 41.3871 18.1655C41.4843 18.2627 41.5334 18.4158 41.5334 18.6239V19.2189C42.6319 18.9911 43.5508 18.7408 44.292 18.4678C44.5061 18.403 44.6337 18.3706 44.672 18.3706H44.6818C44.8114 18.3706 44.9351 18.4295 45.0519 18.5464C45.1432 18.6377 45.1884 18.7643 45.1884 18.9263C45.1884 19.1276 45.0912 19.2709 44.8958 19.3553C44.35 19.5958 43.2288 19.8491 41.5324 20.1152V20.8171C41.5324 20.9084 41.5579 20.9663 41.61 20.9928C41.6227 20.9997 41.6394 21.0027 41.659 21.0027H41.6689C41.7985 21.0223 42.52 21.0321 43.8326 21.0321L44.3392 21.0223C44.4363 21.0095 44.5011 20.9928 44.5345 20.9732L44.564 20.9437C44.6484 20.8593 44.6975 20.7062 44.7102 20.4853C44.7161 20.3292 44.7652 20.2094 44.8565 20.125C44.941 20.0337 45.0617 19.9885 45.2168 19.9885C45.3984 19.9885 45.5388 20.0337 45.636 20.125C45.7204 20.2163 45.7627 20.339 45.7627 20.4951C45.7627 21.0674 45.6458 21.4572 45.4122 21.6653C45.2306 21.8283 44.8722 21.9255 44.3401 21.9579C44.1644 21.9706 43.9661 21.9775 43.7452 21.9775H42.3512C41.8053 21.9775 41.4303 21.9647 41.2251 21.9382C41.0209 21.9127 40.8599 21.841 40.7431 21.7242C40.6135 21.5946 40.5477 21.416 40.5477 21.1882L40.5487 21.1872ZM40.5585 25.8661V23.3215C40.5585 22.9769 40.64 22.7236 40.802 22.5616C40.9385 22.4252 41.1466 22.3565 41.4254 22.3565H44.2616C44.7947 22.3565 45.1098 22.542 45.207 22.9121C45.2325 23.0034 45.2463 23.1075 45.2463 23.2243V25.7493C45.2463 26.0939 45.1648 26.3501 45.0028 26.519C44.8595 26.6623 44.6484 26.733 44.3696 26.733H41.5324C41.1819 26.733 40.9247 26.6515 40.7627 26.4895C40.6263 26.3462 40.5585 26.139 40.5585 25.8651V25.8661ZM44.2439 23.5169C44.2439 23.4324 44.2243 23.3706 44.185 23.3313C44.1458 23.292 44.081 23.2695 43.9897 23.2636H41.7965C41.7121 23.2636 41.6502 23.2832 41.6109 23.3225C41.5717 23.3617 41.5491 23.4236 41.5422 23.508V24.0539H44.242V23.5178L44.2439 23.5169ZM43.9897 25.8269C44.0741 25.8269 44.1359 25.8072 44.1752 25.768C44.2145 25.7287 44.2371 25.6639 44.2439 25.5726V24.9678H41.5442V25.5726C41.5442 25.657 41.5638 25.7189 41.6031 25.7581C41.6424 25.7974 41.7072 25.82 41.7985 25.8259H43.9916L43.9897 25.8269Z" fill="#333333"/>
<path d="M47.7928 21.8401C47.5395 21.7361 47.3608 21.632 47.2568 21.5279C47.1527 21.4239 47.1007 21.3267 47.1007 21.2354C47.1007 21.0597 47.1458 20.9271 47.2371 20.8358C47.3284 20.7445 47.462 20.6994 47.6367 20.6994C47.7408 20.6994 47.9813 20.774 48.3583 20.9232C48.7421 21.0793 48.9336 21.2835 48.9336 21.5378C48.9336 21.7135 48.8894 21.845 48.802 21.9324C48.7146 22.0198 48.5919 22.064 48.4368 22.064C48.3848 22.064 48.2886 22.0365 48.1492 21.9815C48.0098 21.9265 47.891 21.8794 47.7938 21.8401H47.7928ZM47.1007 26.3443C47.1007 26.2667 47.1301 26.1587 47.1881 26.0223C47.513 25.3076 47.7987 24.4662 48.0461 23.4973C48.105 23.2695 48.2149 23.1272 48.3779 23.0683C48.4368 23.0427 48.4869 23.029 48.5291 23.029H48.6165C48.6322 23.029 48.6489 23.031 48.6656 23.0339C48.6813 23.0369 48.696 23.0408 48.7097 23.0437C48.7225 23.0467 48.7372 23.0506 48.7539 23.0535C48.7706 23.0565 48.7843 23.0614 48.7981 23.0683C48.8108 23.0751 48.8236 23.081 48.8374 23.0879C48.8501 23.0948 48.8629 23.1007 48.8766 23.1075C49.0131 23.192 49.0818 23.3412 49.0818 23.5562C49.0818 23.7378 48.9287 24.2836 48.6233 25.1937C48.3111 26.1097 48.1325 26.6005 48.0873 26.6653C47.9833 26.8214 47.8399 26.899 47.6583 26.899C47.4767 26.899 47.3383 26.8518 47.244 26.7576C47.1498 26.6634 47.1026 26.5249 47.1026 26.3433L47.1007 26.3443ZM47.5385 18.7506C47.5385 18.5887 47.5837 18.462 47.675 18.3707C47.7663 18.2794 47.8978 18.2342 48.0696 18.2342C48.2414 18.2342 48.4937 18.3216 48.8256 18.4974C49.1829 18.6858 49.3616 18.8842 49.3616 19.0923C49.3616 19.268 49.3164 19.4015 49.2251 19.4918C49.1338 19.5831 49.0111 19.6283 48.855 19.6283C48.7382 19.6283 48.481 19.5272 48.0854 19.3259C47.9096 19.2346 47.7751 19.1423 47.6809 19.0481C47.5866 18.9539 47.5395 18.8547 47.5395 18.7506H47.5385ZM55.6005 24.5114C55.7301 24.5114 55.8381 24.5507 55.9225 24.6282C56.0197 24.7323 56.0688 24.8884 56.0688 25.0965C56.0688 25.6551 55.9941 26.1067 55.8449 26.4513C55.6888 26.8283 55.4778 27.0168 55.2117 27.0168C54.7307 27.0168 54.2565 26.5524 53.7882 25.6227C53.4181 26.0449 53.0313 26.3993 52.6278 26.685C52.3225 26.899 52.0947 27.007 51.9455 27.007C51.7963 27.007 51.6785 26.9647 51.595 26.8803C51.5106 26.7959 51.4684 26.6722 51.4684 26.5102C51.4684 26.3148 51.5754 26.1627 51.7904 26.0517C52.3951 25.7268 52.9341 25.2624 53.4083 24.6577C53.1226 23.7221 52.94 22.2927 52.8624 20.3685H50.5721C50.5004 20.3685 50.4503 20.3832 50.4209 20.4127C50.3914 20.4422 50.3767 20.4922 50.3767 20.5639C50.3767 21.9746 50.3345 23.0722 50.2501 23.8586C50.1332 24.9571 49.9379 25.7788 49.6649 26.3247C49.4892 26.6624 49.288 26.8312 49.0602 26.8312C48.8324 26.8312 48.6803 26.7497 48.6017 26.5878C48.5625 26.5102 48.5428 26.416 48.5428 26.305C48.5428 26.201 48.6017 26.038 48.7186 25.8181C49.1279 25.0769 49.3557 23.7093 49.4009 21.7145C49.4077 21.5063 49.4107 21.1981 49.4107 20.7887V20.3695C49.4107 20.0514 49.4882 19.8138 49.6443 19.6578C49.8004 19.5017 50.0213 19.4241 50.307 19.4241H52.8418L52.8025 18.4983V18.4787C52.8025 18.3098 52.8448 18.1832 52.9292 18.0988C53.0136 18.0143 53.1334 17.9721 53.2895 17.9721C53.4132 17.9721 53.5133 18.0114 53.5919 18.089C53.7283 18.2254 53.797 18.4758 53.797 18.84L53.8069 19.4251H55.6005C55.7497 19.4251 55.8655 19.4653 55.946 19.5468C56.0275 19.6283 56.0678 19.7471 56.0678 19.9022C56.0678 20.1496 55.9637 20.2988 55.7556 20.3509C55.7104 20.3636 55.6584 20.3705 55.5995 20.3705H53.8255C53.8648 21.7223 53.9551 22.7649 54.0984 23.4992C54.3124 22.9986 54.498 22.4301 54.6541 21.793C54.7454 21.4553 54.8779 21.2472 55.0536 21.1696C55.0988 21.15 55.1508 21.1402 55.2097 21.1402C55.3786 21.1402 55.5052 21.1824 55.5897 21.2668C55.6741 21.3512 55.7163 21.4681 55.7163 21.6173C55.7163 21.7665 55.5799 22.2122 55.3069 22.9328C55.034 23.6544 54.7444 24.2522 54.4391 24.7264C54.66 25.2399 54.8416 25.5678 54.9849 25.7111C55.0173 25.7435 55.0468 25.7661 55.0723 25.7788C55.1243 25.6816 55.1538 25.4509 55.1597 25.0867C55.1724 24.7038 55.3187 24.5114 55.5985 24.5114H55.6005ZM50.8342 21.9471C50.7046 21.9471 50.6015 21.9098 50.5269 21.8352C50.4523 21.7606 50.415 21.6516 50.415 21.5083C50.415 21.365 50.4523 21.2472 50.5269 21.1716C50.6015 21.097 50.7036 21.0597 50.8342 21.0597H52.4619C52.6111 21.0597 52.725 21.0989 52.8035 21.1765C52.8821 21.254 52.9204 21.363 52.9204 21.5034C52.9204 21.6438 52.8811 21.7518 52.8035 21.8303C52.726 21.9079 52.6121 21.9471 52.4619 21.9471H50.8342ZM50.4631 24.7254V23.3412C50.4631 23.0751 50.5318 22.8729 50.6683 22.7364C50.8047 22.6 50.9962 22.5313 51.2436 22.5313H52.0918C52.3451 22.5313 52.5404 22.6029 52.6769 22.7453C52.8134 22.8886 52.8821 23.0869 52.8821 23.3402V24.7343C52.8821 24.9944 52.8134 25.1927 52.6769 25.3292C52.5404 25.4656 52.3392 25.5344 52.0721 25.5344H51.2436C50.9962 25.5344 50.8047 25.4666 50.6683 25.3292C50.5318 25.1927 50.4631 24.9915 50.4631 24.7244V24.7254ZM52.0721 23.566C52.0721 23.5071 52.0594 23.4649 52.0329 23.4394C52.0005 23.407 51.9484 23.3903 51.8768 23.3903H51.4576C51.3928 23.3903 51.3467 23.403 51.3211 23.4295C51.2956 23.4551 51.2789 23.5012 51.272 23.566V24.5114C51.272 24.5762 51.2838 24.6204 51.3064 24.643C51.329 24.6655 51.379 24.6773 51.4576 24.6773H51.8768C51.9543 24.6773 52.0054 24.6665 52.028 24.643C52.0505 24.6194 52.0653 24.5762 52.0721 24.5114V23.566ZM55.5514 19.0422C55.5514 19.3475 55.3884 19.5007 55.0635 19.5007C54.9074 19.5007 54.7739 19.4359 54.6639 19.3053L54.2643 18.8184C54.1603 18.6819 54.1082 18.5749 54.1082 18.4964C54.1082 18.3668 54.1475 18.2627 54.2251 18.1842C54.3026 18.1066 54.4165 18.0674 54.5667 18.0674C54.6384 18.0674 54.7189 18.0968 54.8102 18.1547C54.927 18.2392 55.0556 18.3511 55.195 18.4915C55.3344 18.6309 55.4287 18.7418 55.4778 18.8233C55.5268 18.9048 55.5514 18.9774 55.5514 19.0422Z" fill="#333333"/>
<path d="M31.0112 19.4761C30.9631 19.5369 30.9385 19.5968 30.9385 19.6577C30.9385 19.7784 30.9719 19.8727 31.0387 19.9385C31.1054 20.0052 31.2016 20.0386 31.3283 20.0386C31.4549 20.0386 31.5943 19.963 31.7455 19.8118C31.9448 19.6125 32.0626 19.3769 32.0989 19.105C32.1048 19.0382 32.1176 18.9842 32.1353 18.942C32.1411 18.9243 32.15 18.9047 32.1627 18.8831C32.1745 18.8625 32.1902 18.8517 32.2079 18.8517H32.8882C32.9363 18.8576 32.9717 18.8694 32.9923 18.888C33.0129 18.9057 33.0237 18.9361 33.0237 18.9783V19.3769C33.0237 19.4437 33.0355 19.5006 33.06 19.5487C33.1504 19.7726 33.3987 19.8845 33.8032 19.8845H34.2018C34.4855 19.8786 34.7064 19.7971 34.8635 19.64C35.0206 19.4829 35.0991 19.2444 35.0991 18.9243C35.0991 18.8576 35.0873 18.7977 35.0628 18.7427C35.0019 18.6279 34.8841 18.5709 34.7093 18.5709C34.5827 18.5709 34.4826 18.6043 34.4099 18.6711C34.3559 18.7319 34.3255 18.8075 34.3196 18.8978C34.3137 19.0127 34.2862 19.0912 34.2381 19.1334C34.2195 19.158 34.1841 19.1698 34.1291 19.1698H33.975C33.8906 19.1639 33.8356 19.1482 33.812 19.1246C33.8003 19.1128 33.7944 19.0971 33.7944 19.0794V18.78C33.7944 18.5621 33.7384 18.3981 33.6265 18.2862C33.5146 18.1743 33.3497 18.1183 33.1327 18.1183H32.0361C31.9036 18.1183 31.7887 18.1429 31.6915 18.191C31.504 18.2882 31.4039 18.4688 31.3921 18.7349C31.3862 18.9646 31.3283 19.1423 31.2203 19.2699C31.13 19.3426 31.0603 19.4123 31.0122 19.478L31.0112 19.4761Z" fill="#333333"/>
<path d="M35.0539 22.6804C34.9695 22.596 34.8497 22.5538 34.6936 22.5538H27.2963C27.1923 22.5538 27.1049 22.5705 27.0332 22.6029C26.8968 22.6676 26.828 22.7786 26.828 22.9347C26.828 23.0063 26.8447 23.0711 26.8771 23.13C26.9488 23.2665 27.0882 23.3352 27.2963 23.3352H29.5425V23.5836H27.9001C27.3866 23.5836 27.1304 23.8762 27.1304 24.4613V26.0683C27.1304 26.1007 27.1363 26.1989 27.1363 26.2382C27.1363 26.4846 27.1981 26.6701 27.3218 26.7938C27.4711 26.9431 27.7018 27.0177 28.014 27.0177H34.0869C34.6063 27.0177 34.8615 26.6593 34.8615 26.0683V24.3543C34.8615 23.8408 34.5689 23.5846 33.9838 23.5846H32.1087V23.3362H34.7967C34.9656 23.3362 34.9872 23.2969 35.0657 23.2194C35.1305 23.1546 35.1629 23.0672 35.1629 22.9563C35.1629 22.8453 35.1275 22.755 35.0559 22.6834L35.0539 22.6804ZM30.429 23.3333H31.2095V23.5816H30.429V23.3333ZM28.014 24.4888C28.014 24.4367 28.0238 24.4014 28.0434 24.3817C28.0689 24.3562 28.1112 24.3425 28.1701 24.3425H29.2401C29.0772 24.4593 28.9181 24.5535 28.5991 24.6252C28.495 24.6576 28.4106 24.7028 28.3458 24.7617C28.2869 24.8206 28.2584 24.906 28.2584 25.0199C28.2672 25.1681 28.4479 25.2859 28.5107 25.3517H28.014V24.4888ZM33.9652 26.0418C33.9652 26.1007 33.9593 26.1891 33.9367 26.2117C33.9141 26.2343 33.8768 26.246 33.8248 26.246H28.175C28.1161 26.246 28.0758 26.2343 28.0532 26.2117C28.0306 26.1891 28.014 26.0998 28.014 26.0418V25.9947H33.9662V26.0418H33.9652ZM33.6991 24.3435H33.9406C33.9662 24.37 33.975 24.4377 33.975 24.4897V25.3527H29.0114C29.1263 25.335 29.4964 25.1789 29.6456 25.0945C30.0098 24.8864 30.2562 24.636 30.3868 24.3435H31.2095V24.7263C31.2095 24.8559 31.2546 24.9403 31.3459 25.0316C31.4952 25.1809 31.7583 25.2555 32.1352 25.2555H32.8666C33.2367 25.2555 33.4223 25.1779 33.5853 25.0218C33.6952 24.905 33.7512 24.7823 33.7512 24.5997C33.7512 24.5084 33.7374 24.4024 33.6982 24.3435H33.6991ZM33.1425 24.3425C33.1003 24.4004 33.0954 24.4524 33.0453 24.531C33.0257 24.5634 32.954 24.5801 32.8244 24.5801H32.3316C32.2275 24.5801 32.1588 24.5643 32.1264 24.531C32.1136 24.5182 32.1068 24.5015 32.1068 24.4819V24.3425H33.1425Z" fill="#333333"/>
<path d="M34.9302 21.7125C34.8625 21.6457 34.7565 21.6084 34.6102 21.6025C34.2538 21.5849 33.92 21.5407 33.6108 21.471C33.7924 21.3601 33.9465 21.255 34.0751 21.1549C34.4315 20.8977 34.6102 20.6846 34.6102 20.5148C34.6102 20.4038 34.5748 20.3126 34.5051 20.2428C34.406 20.1437 34.2332 20.0936 33.9878 20.0936H31.4441C31.3155 20.0936 31.2193 20.126 31.1545 20.1898C31.0956 20.2487 31.0671 20.3273 31.0671 20.4264C31.0671 20.5256 31.0976 20.6061 31.1594 20.6679C31.2203 20.7298 31.3155 20.7602 31.4441 20.7602H31.5933C31.5286 20.8191 31.4971 20.8918 31.4971 20.9791C31.4971 21.0263 31.5089 21.0685 31.5325 21.1068C31.556 21.1451 31.5983 21.1941 31.6601 21.256C31.722 21.3178 31.828 21.3974 31.9801 21.4975C31.828 21.5623 31.6257 21.6173 31.3744 21.6644C31.2517 21.6938 31.1584 21.738 31.0936 21.7959C31.0347 21.849 31.0063 21.9275 31.0063 22.0325C31.0063 22.1317 31.0328 22.2063 31.0848 22.2564C31.1378 22.3064 31.2016 22.3369 31.2772 22.3487C31.3126 22.3545 31.3568 22.3575 31.4088 22.3575C31.4608 22.3575 31.5344 22.3486 31.6277 22.331C31.9438 22.2613 32.3208 22.1238 32.7587 21.9187C33.5008 22.2053 34.1213 22.3487 34.618 22.3487C34.7525 22.3487 34.8546 22.3133 34.9253 22.2436C34.995 22.1739 35.0304 22.0797 35.0304 21.9628C35.0304 21.8637 34.997 21.7802 34.9293 21.7125H34.9302ZM32.739 21.254C32.6016 21.1824 32.4671 21.0989 32.3355 21.0027C32.204 20.9075 32.1146 20.8446 32.0665 20.8142H33.4655C33.2623 20.9634 33.0198 21.1097 32.739 21.254Z" fill="#333333"/>
<path d="M30.7088 20.076L30.6912 20.0584C30.6274 20.0063 30.5429 19.9798 30.4379 19.9798H29.6437C29.6554 19.9042 29.6643 19.8404 29.6702 19.7874H30.2288C30.3161 19.7874 30.3858 19.7697 30.4379 19.7354C30.5311 19.6833 30.5773 19.5989 30.5773 19.4821C30.5773 19.3947 30.5478 19.3221 30.4899 19.2642C30.432 19.2062 30.3446 19.1768 30.2278 19.1768H28.8926C28.9044 19.1473 28.9103 19.1169 28.9103 19.0855C28.9103 19.0541 28.9044 19.0226 28.8926 18.9942C28.8514 18.8842 28.7444 18.8283 28.5697 18.8283C28.4764 18.8283 28.3979 18.8636 28.334 18.9333C28.3046 18.9628 28.2496 19.0325 28.1681 19.1424C28.1043 19.2357 28.0346 19.3289 27.959 19.4212C27.9188 19.4625 27.8834 19.5174 27.854 19.5871C27.8363 19.6284 27.8275 19.6657 27.8275 19.701C27.8275 19.8522 27.8854 19.9514 28.0022 19.9975C27.961 20.0093 27.9237 20.0299 27.8883 20.0584C27.8186 20.1163 27.7833 20.1948 27.7833 20.294C27.7833 20.3872 27.8186 20.4658 27.8883 20.5296C27.9522 20.5816 28.0366 20.6081 28.1416 20.6081H28.7356C28.6079 20.7711 28.3831 20.8928 28.0631 20.9743C27.9816 20.9979 27.9148 21.0352 27.8628 21.0882C27.8108 21.1412 27.7843 21.2158 27.7843 21.315C27.7843 21.4141 27.8157 21.4956 27.8805 21.5594C27.9443 21.6232 28.0258 21.6556 28.1249 21.6556C28.2182 21.6556 28.337 21.6242 28.4823 21.5594C28.7729 21.4318 29.0085 21.2688 29.1891 21.0705C29.2245 21.1059 29.2706 21.1314 29.3285 21.1491C29.5317 21.2423 29.6888 21.3238 29.7998 21.3935C30.003 21.527 30.163 21.5938 30.2798 21.5938C30.3967 21.5938 30.486 21.5624 30.5508 21.4976C30.6087 21.4397 30.6382 21.3641 30.6382 21.2708C30.6382 21.2011 30.6018 21.1285 30.5292 21.0529C30.4565 20.9773 30.3211 20.9017 30.1237 20.8261C29.8214 20.7043 29.6083 20.6337 29.4866 20.617V20.6081H30.4379C30.5135 20.6081 30.5802 20.5934 30.6382 20.5649C30.7432 20.5129 30.7952 20.4226 30.7952 20.294C30.7952 20.2066 30.7658 20.134 30.7079 20.076H30.7088ZM28.929 19.9798H28.3095C28.3792 19.9445 28.4518 19.8807 28.5274 19.7874H28.9466C28.9407 19.863 28.9349 19.9268 28.929 19.9798Z" fill="#333333"/>
<path d="M26.828 21.6231V18.9528C26.828 18.6583 26.8968 18.4394 27.0352 18.2951C27.154 18.1763 27.3326 18.1164 27.5712 18.1164H30.6312C30.7756 18.1164 30.8816 18.1508 30.9513 18.2195C31.02 18.2882 31.0544 18.3795 31.0544 18.4924C31.0544 18.5994 31.02 18.6868 30.9513 18.7555C30.8826 18.8242 30.7756 18.8586 30.6312 18.8586H27.7823C27.7322 18.8586 27.7008 18.8645 27.688 18.8773C27.6625 18.9028 27.6507 18.943 27.6507 18.999V21.4808C27.6507 21.5368 27.6615 21.576 27.6841 21.5986C27.7057 21.6202 27.7391 21.632 27.7833 21.632H30.5193C30.6764 21.632 30.7922 21.6693 30.8669 21.7449C30.9297 21.8077 30.9611 21.8892 30.9611 21.9893C30.9611 22.1022 30.9199 22.1916 30.8394 22.2573C30.7579 22.3231 30.6509 22.3565 30.5193 22.3565H27.5957C27.2885 22.3565 27.1471 22.2848 27.0087 22.1405C26.8899 22.0217 26.83 21.8489 26.83 21.6231H26.828Z" fill="#333333"/>
</svg>
