<svg width="40" height="60" viewBox="0 0 40 60" fill="none" xmlns="http://www.w3.org/2000/svg">
<path d="M5.31199 11.3332C5.31199 11.3332 4.07616 5.0487 5.58023 0C5.58023 0 10.2074 0.42632 15.3711 3.77935L5.3072 11.3332H5.31199Z" fill="#333333"/>
<path d="M34.2198 11.3332C34.2198 11.3332 35.4557 5.0487 33.9516 0C33.9516 0 29.3244 0.42632 24.1608 3.77935L34.2246 11.3332H34.2198Z" fill="#333333"/>
<path d="M0.464623 17.5791H5.70492C5.96153 17.5791 6.16956 17.3722 6.16956 17.1169C6.16956 16.8616 5.96153 16.6546 5.70492 16.6546H0.464623C0.208013 16.6546 -1.04904e-05 16.8616 -1.04904e-05 17.1169C-1.04904e-05 17.3722 0.208013 17.5791 0.464623 17.5791Z" fill="#333333"/>
<path d="M0.849421 14.3981L5.81834 16.0626C6.06166 16.1441 6.32465 16.014 6.40574 15.7719C6.48683 15.5298 6.35531 15.2675 6.11199 15.186L1.14307 13.5215C0.899746 13.44 0.636765 13.5701 0.555677 13.8122C0.474588 14.0543 0.6061 14.3166 0.849421 14.3981Z" fill="#333333"/>
<path d="M5.82148 18.1694L0.852559 19.8339C0.609238 19.9154 0.477717 20.1777 0.558806 20.4197C0.639894 20.6618 0.902884 20.792 1.1462 20.7105L6.11512 19.046C6.35844 18.9644 6.48996 18.7021 6.40887 18.4601C6.32778 18.218 6.0648 18.0878 5.82148 18.1694Z" fill="#333333"/>
<path d="M38.7083 16.6501H33.4681C33.2114 16.6501 33.0034 16.8571 33.0034 17.1124C33.0034 17.3677 33.2114 17.5746 33.4681 17.5746H38.7083C38.965 17.5746 39.173 17.3677 39.173 17.1124C39.173 16.8571 38.965 16.6501 38.7083 16.6501Z" fill="#333333"/>
<path d="M38.0386 13.5127L33.0697 15.1772C32.8264 15.2588 32.6949 15.5211 32.776 15.7631C32.8571 16.0052 33.12 16.1354 33.3634 16.0538L38.3323 14.3893C38.5756 14.3078 38.7071 14.0455 38.626 13.8035C38.545 13.5614 38.282 13.4312 38.0386 13.5127Z" fill="#333333"/>
<path d="M33.0629 19.0488L38.0318 20.7133C38.2752 20.7948 38.5381 20.6646 38.6192 20.4226C38.7003 20.1805 38.5688 19.9182 38.3255 19.8367L33.3566 18.1722C33.1132 18.0906 32.8503 18.2208 32.7692 18.4629C32.6881 18.7049 32.8196 18.9672 33.0629 19.0488Z" fill="#333333"/>
<path d="M36.5099 18.7575V18.7479C36.5099 14.1208 34.8765 10.145 31.6097 6.82552C28.3429 3.50603 24.4294 1.84387 19.8645 1.84387C15.0505 1.84387 10.9742 3.48206 7.64515 6.75366C4.31607 10.0253 2.65393 14.025 2.65393 18.7479C2.65393 23.4709 4.30649 27.4131 7.61162 30.7182C10.8976 34.0042 14.8589 35.652 19.4957 35.6759H26.6903V26.1629H19.5819C17.6324 26.1629 15.9559 25.4396 14.5668 23.993C13.1728 22.5464 12.4783 20.798 12.4783 18.7527C12.4783 16.7073 13.1728 14.959 14.5572 13.5124C15.9415 12.0658 17.618 11.3425 19.5867 11.3425C21.5554 11.3425 23.2511 12.061 24.6258 13.5028C26.0006 14.9446 26.6903 16.693 26.6903 18.7575V18.7671V37.8506V43.0861V43.0957C26.6903 45.141 25.9958 46.8894 24.6115 48.336C23.2271 49.7826 21.5506 50.5059 19.5819 50.5059C17.6132 50.5059 15.9175 49.7873 14.5428 48.3456C13.1681 46.9038 12.4783 45.1554 12.4783 43.0909C12.4783 41.6778 11.9993 40.4707 11.0365 39.4696C10.0737 38.4685 8.9193 37.9703 7.56851 37.9703C6.21772 37.9703 5.03937 38.4685 4.08615 39.4648C3.13293 40.4612 2.65872 41.6682 2.65872 43.0957C2.65872 47.7228 4.29212 51.6986 7.55893 55.0181C10.8257 58.3376 14.7392 59.9997 19.3041 59.9997C24.1181 59.9997 28.1944 58.3615 31.5235 55.0899C34.8526 51.8183 36.5147 47.8186 36.5147 43.0957V43.0861V37.8506V18.7671L36.5099 18.7575Z" fill="#6BBDDD"/>
</svg>
