<svg width="40" height="80" viewBox="0 0 40 80" fill="none" xmlns="http://www.w3.org/2000/svg">
<path d="M8.28752 9.06661C8.28752 9.06661 7.29885 4.03898 8.50212 0C8.50212 0 12.2039 0.341058 16.3348 3.02349L8.28369 9.06661H8.28752Z" fill="#333333"/>
<path d="M31.4141 9.06661C31.4141 9.06661 32.4028 4.03898 31.1995 0C31.1995 0 27.4978 0.341058 23.3668 3.02349L31.4179 9.06661H31.4141Z" fill="#333333"/>
<path d="M4.40978 14.0633H8.60204C8.80733 14.0633 8.97375 13.8978 8.97375 13.6936C8.97375 13.4893 8.80733 13.3238 8.60204 13.3238H4.40978C4.20449 13.3238 4.03807 13.4893 4.03807 13.6936C4.03807 13.8978 4.20449 14.0633 4.40978 14.0633Z" fill="#333333"/>
<path d="M4.71762 11.5185L8.69277 12.8502C8.88743 12.9154 9.09782 12.8112 9.16269 12.6176C9.22756 12.4239 9.12235 12.2141 8.92769 12.1489L4.95254 10.8173C4.75788 10.7521 4.54749 10.8562 4.48262 11.0498C4.41775 11.2435 4.52296 11.4533 4.71762 11.5185Z" fill="#333333"/>
<path d="M8.69509 14.5356L4.71993 15.8672C4.52528 15.9324 4.42006 16.1422 4.48493 16.3359C4.5498 16.5295 4.76019 16.6337 4.95485 16.5684L8.93001 15.2368C9.12466 15.1716 9.22987 14.9618 9.165 14.7681C9.10013 14.5745 8.88975 14.4703 8.69509 14.5356Z" fill="#333333"/>
<path d="M35.0046 13.3202H30.8123C30.607 13.3202 30.4406 13.4857 30.4406 13.6899C30.4406 13.8942 30.607 14.0597 30.8123 14.0597H35.0046C35.2099 14.0597 35.3763 13.8942 35.3763 13.6899C35.3763 13.4857 35.2099 13.3202 35.0046 13.3202Z" fill="#333333"/>
<path d="M34.469 10.8102L30.4939 12.1418C30.2992 12.207 30.194 12.4169 30.2589 12.6105C30.3237 12.8042 30.5341 12.9083 30.7288 12.8431L34.7039 11.5115C34.8986 11.4463 35.0038 11.2365 34.9389 11.0428C34.8741 10.8491 34.6637 10.745 34.469 10.8102Z" fill="#333333"/>
<path d="M30.4884 15.239L34.4636 16.5707C34.6582 16.6359 34.8686 16.5318 34.9335 16.3381C34.9984 16.1444 34.8931 15.9346 34.6985 15.8694L30.7233 14.5378C30.5287 14.4726 30.3183 14.5767 30.2534 14.7704C30.1885 14.964 30.2938 15.1738 30.4884 15.239Z" fill="#333333"/>
<path d="M33.2462 15.0061V14.9984C33.2462 11.2967 31.9394 8.11605 29.326 5.46044C26.7125 2.80483 23.5817 1.47511 19.9298 1.47511C16.0786 1.47511 12.8175 2.78567 10.1543 5.40295C7.49098 8.02024 6.16126 11.22 6.16126 14.9984C6.16126 18.7768 7.48331 21.9306 10.1274 24.5747C12.7562 27.2035 15.9253 28.5217 19.6347 28.5409H25.3905V20.9304H19.7037C18.1441 20.9304 16.8029 20.3518 15.6916 19.1945C14.5764 18.0372 14.0208 16.6385 14.0208 15.0022C14.0208 13.3659 14.5764 11.9672 15.6839 10.81C16.7914 9.65269 18.1326 9.07406 19.7075 9.07406C21.2825 9.07406 22.6391 9.64887 23.7389 10.8023C24.8387 11.9558 25.3905 13.3545 25.3905 15.0061V15.0137V30.2806V34.469V34.4767C25.3905 36.113 24.8348 37.5117 23.7274 38.669C22.6199 39.8262 21.2787 40.4049 19.7037 40.4049C18.1287 40.4049 16.7722 39.8301 15.6724 38.6766C14.5726 37.5232 14.0208 36.1245 14.0208 34.4729C14.0208 33.3424 13.6376 32.3767 12.8673 31.5758C12.0971 30.7749 11.1736 30.3764 10.0929 30.3764C9.0123 30.3764 8.06962 30.775 7.30704 31.572C6.54446 32.3691 6.16509 33.3347 6.16509 34.4767C6.16509 38.1784 7.47182 41.3591 10.0853 44.0147C12.6987 46.6703 15.8295 48 19.4815 48C23.3327 48 26.5937 46.6894 29.257 44.0722C31.9203 41.4549 33.25 38.2551 33.25 34.4767V34.469V30.2806V15.0137L33.2462 15.0061Z" fill="#6BBDDD"/>
<path d="M5.53632 60.1718C5.17797 59.9304 4.64855 59.6608 3.94915 59.362C2.99425 58.9766 2.5168 58.5208 2.5168 57.9946C2.5168 57.7283 2.60883 57.4998 2.79396 57.3071C2.97801 57.1144 3.19779 57.0181 3.4533 57.0181C3.78459 57.0181 4.43418 57.3147 5.18879 57.7597C5.34794 57.8539 5.53416 57.9102 5.73337 57.9102C6.32125 57.9102 6.7987 57.4338 6.7987 56.8448C6.7987 56.5146 6.64821 56.2201 6.41219 56.0242C6.40028 56.0144 6.38621 56.0047 6.37322 55.995C5.55148 55.3681 4.69835 55 3.5345 55C2.53629 55 1.72754 55.2956 1.10827 55.8878C0.490069 56.4789 0.18043 57.2498 0.18043 58.1992C0.18043 58.628 0.276787 59.047 0.4695 59.4573C0.662212 59.8665 0.899313 60.1794 1.18189 60.3938C1.46446 60.6082 1.94191 60.8377 2.61424 61.0834C3.79217 61.5089 4.38113 62.0004 4.38113 62.558C4.38113 62.8287 4.25338 63.0874 3.99895 63.3332C3.74345 63.58 3.46629 63.6537 3.18913 63.6537C2.81345 63.6407 2.67054 63.6688 2.07724 63.1773C2.07508 63.1751 2.07291 63.174 2.07075 63.1719C2.06533 63.1665 2.05992 63.1632 2.05342 63.1578C1.8553 63.003 1.60629 62.9088 1.33562 62.9088C0.693609 62.9088 0.172852 63.4295 0.172852 64.0716C0.172852 64.4418 0.347159 64.771 0.61674 64.9842C1.17756 65.4422 1.67882 65.8883 3.06354 65.9825C4.07041 66.0507 4.94844 65.6436 5.68898 64.9648C6.42951 64.2859 6.79978 63.4891 6.79978 62.5721C6.79978 62.073 6.67852 61.6085 6.43709 61.1798C6.19566 60.7511 5.89577 60.4165 5.53741 60.174L5.53632 60.1718Z" fill="#333333"/>
<path d="M29.3428 64.7958V59.1325C29.3428 59.1325 29.3428 59.1227 29.3428 59.1173C29.3428 56.8448 27.5001 55.0021 25.2276 55.0021C22.9551 55.0021 21.1124 56.8448 21.1124 59.1173C21.1124 61.3898 22.9551 63.2325 25.2276 63.2325C25.8404 63.2325 26.4218 63.0972 26.9447 62.8568V64.7958H26.9458C26.9469 64.9799 26.9902 65.1661 27.0811 65.3393C27.3875 65.9261 28.1118 66.1535 28.6975 65.8471C29.1035 65.6349 29.3374 65.2235 29.3417 64.7958H29.3428ZM25.2287 61.0628C24.1536 61.0628 23.2832 60.1913 23.2832 59.1173C23.2832 58.0433 24.1547 57.1718 25.2287 57.1718C26.3027 57.1718 27.1742 58.0433 27.1742 59.1173C27.1742 60.1913 26.3027 61.0628 25.2287 61.0628Z" fill="#333333"/>
<path d="M39.2415 64.7958V59.1325C39.2415 59.1325 39.2415 59.1227 39.2415 59.1173C39.2415 56.8448 37.3988 55.0021 35.1263 55.0021C32.8539 55.0021 31.0112 56.8448 31.0112 59.1173C31.0112 61.3898 32.8539 63.2325 35.1263 63.2325C35.7391 63.2325 36.3205 63.0972 36.8434 62.8568V64.7958H36.8445C36.8456 64.9799 36.8889 65.1661 36.9799 65.3393C37.2862 65.9261 38.0105 66.1535 38.5963 65.8471C39.0023 65.6349 39.2361 65.2235 39.2404 64.7958H39.2415ZM35.1274 61.0628C34.0524 61.0628 33.1819 60.1913 33.1819 59.1173C33.1819 58.0433 34.0534 57.1718 35.1274 57.1718C36.2014 57.1718 37.073 58.0433 37.073 59.1173C37.073 60.1913 36.2014 61.0628 35.1274 61.0628Z" fill="#333333"/>
<path d="M13.9551 55.0021C10.9225 55.0021 8.46492 57.4609 8.46492 60.4923C8.46492 63.5237 10.9236 65.9824 13.9551 65.9824C16.9865 65.9824 19.4452 63.5237 19.4452 60.4923C19.4452 57.4609 16.9865 55.0021 13.9551 55.0021ZM13.9551 63.815C12.12 63.815 10.6335 62.3274 10.6335 60.4934C10.6335 58.6594 12.121 57.1718 13.9551 57.1718C15.7891 57.1718 17.2766 58.6594 17.2766 60.4934C17.2766 62.3274 15.7891 63.815 13.9551 63.815Z" fill="#333333"/>
<path d="M16.3954 78.8342C16.308 78.7468 16.2638 78.628 16.2638 78.4788C16.2638 78.3296 16.308 78.2108 16.3954 78.1234C16.4828 78.036 16.6153 77.9919 16.79 77.9919H17.1219C17.2907 77.9919 17.3752 77.9006 17.3752 77.7189V75.6524H16.4494C16.4101 76.7706 16.2707 77.6345 16.0302 78.2451C15.9713 78.4071 15.9163 78.5259 15.8643 78.6005C15.8122 78.6751 15.7671 78.7321 15.7278 78.7713C15.6306 78.8685 15.5226 78.9176 15.4058 78.9176C15.2438 78.9176 15.1201 78.8754 15.0357 78.791C14.9513 78.7065 14.9091 78.5858 14.9091 78.4307C14.9091 78.3266 15.0033 78.0537 15.1918 77.6119C15.4058 77.0916 15.5138 76.1884 15.5138 74.9024V71.266C15.5138 70.9411 15.5953 70.6976 15.7573 70.5347C15.9193 70.3727 16.15 70.2912 16.4494 70.2912H17.385C17.7099 70.2912 17.9504 70.3687 18.1065 70.5248C18.243 70.6613 18.3117 70.8665 18.3117 71.1394V77.9045C18.3117 78.2687 18.2273 78.5377 18.0584 78.7134C17.8896 78.8823 17.6226 78.9667 17.2593 78.9667H16.791C16.6153 78.9667 16.4837 78.9225 16.3964 78.8352L16.3954 78.8342ZM17.3752 74.7355V73.4288H16.468L16.4582 74.7355H17.3742H17.3752ZM17.3752 71.4604C17.3752 71.2984 17.2937 71.217 17.1317 71.217H16.6732C16.6016 71.217 16.5525 71.2366 16.5269 71.2759C16.4877 71.3279 16.468 71.4418 16.468 71.6175V72.5148H17.3752V71.4624V71.4604ZM18.8075 73.205V70.6417C18.8075 70.4335 18.8566 70.2814 18.9538 70.1832C19.0382 70.0988 19.1521 70.0566 19.2954 70.0566C19.4387 70.0566 19.5615 70.0988 19.6459 70.1832C19.7431 70.2804 19.7922 70.4335 19.7922 70.6417V71.2366C20.8907 71.0088 21.8096 70.7585 22.5508 70.4856C22.7648 70.4208 22.8925 70.3884 22.9307 70.3884H22.9406C23.0702 70.3884 23.1938 70.4473 23.3107 70.5641C23.402 70.6554 23.4471 70.7821 23.4471 70.944C23.4471 71.1453 23.3499 71.2886 23.1546 71.3731C22.6087 71.6136 21.4876 71.8669 19.7912 72.1329V72.8348C19.7912 72.9261 19.8167 72.9841 19.8687 73.0106C19.8815 73.0174 19.8982 73.0204 19.9178 73.0204H19.9276C20.0572 73.04 20.7788 73.0498 22.0914 73.0498L22.5979 73.04C22.6951 73.0273 22.7599 73.0106 22.7933 72.9909L22.8228 72.9615C22.9072 72.8771 22.9563 72.7239 22.969 72.503C22.9749 72.3469 23.024 72.2272 23.1153 72.1427C23.1997 72.0514 23.3205 72.0063 23.4756 72.0063C23.6572 72.0063 23.7976 72.0514 23.8948 72.1427C23.9792 72.234 24.0214 72.3567 24.0214 72.5128C24.0214 73.0852 23.9046 73.4749 23.671 73.6831C23.4894 73.846 23.131 73.9432 22.5989 73.9756C22.4232 73.9884 22.2249 73.9952 22.004 73.9952H20.6099C20.0641 73.9952 19.6891 73.9825 19.4839 73.956C19.2797 73.9304 19.1187 73.8588 19.0019 73.742C18.8723 73.6124 18.8065 73.4337 18.8065 73.2059L18.8075 73.205ZM18.8173 77.8839V75.3392C18.8173 74.9946 18.8988 74.7414 19.0608 74.5794C19.1972 74.4429 19.4054 74.3742 19.6842 74.3742H22.5204C23.0535 74.3742 23.3686 74.5597 23.4658 74.9299C23.4913 75.0212 23.5051 75.1252 23.5051 75.242V77.767C23.5051 78.1116 23.4236 78.3679 23.2616 78.5367C23.1183 78.68 22.9072 78.7507 22.6284 78.7507H19.7912C19.4407 78.7507 19.1835 78.6692 19.0215 78.5073C18.8851 78.3639 18.8173 78.1568 18.8173 77.8829V77.8839ZM22.5027 75.5346C22.5027 75.4502 22.4831 75.3883 22.4438 75.349C22.4045 75.3098 22.3397 75.2872 22.2484 75.2813H20.0553C19.9708 75.2813 19.909 75.3009 19.8697 75.3402C19.8305 75.3795 19.8079 75.4413 19.801 75.5258V76.0716H22.5008V75.5356L22.5027 75.5346ZM22.2484 77.8446C22.3329 77.8446 22.3947 77.825 22.434 77.7857C22.4733 77.7464 22.4958 77.6816 22.5027 77.5903V76.9856H19.803V77.5903C19.803 77.6748 19.8226 77.7366 19.8619 77.7759C19.9011 77.8151 19.9659 77.8377 20.0572 77.8436H22.2504L22.2484 77.8446Z" fill="#333333"/>
<path d="M26.0516 73.8579C25.7983 73.7538 25.6196 73.6497 25.5156 73.5457C25.4115 73.4416 25.3595 73.3444 25.3595 73.2531C25.3595 73.0774 25.4046 72.9449 25.4959 72.8536C25.5872 72.7623 25.7207 72.7171 25.8955 72.7171C25.9996 72.7171 26.2401 72.7917 26.6171 72.9409C27.0009 73.097 27.1924 73.3012 27.1924 73.5555C27.1924 73.7312 27.1482 73.8628 27.0608 73.9502C26.9734 74.0375 26.8507 74.0817 26.6956 74.0817C26.6436 74.0817 26.5474 74.0542 26.408 73.9992C26.2685 73.9443 26.1498 73.8971 26.0526 73.8579H26.0516ZM25.3595 78.362C25.3595 78.2845 25.3889 78.1765 25.4468 78.04C25.7718 77.3253 26.0575 76.484 26.3049 75.515C26.3638 75.2873 26.4737 75.1449 26.6367 75.086C26.6956 75.0605 26.7457 75.0467 26.7879 75.0467H26.8753C26.891 75.0467 26.9077 75.0487 26.9243 75.0517C26.9401 75.0546 26.9548 75.0585 26.9685 75.0615C26.9813 75.0644 26.996 75.0683 27.0127 75.0713C27.0294 75.0742 27.0431 75.0791 27.0569 75.086C27.0696 75.0929 27.0824 75.0988 27.0961 75.1056C27.1089 75.1125 27.1217 75.1184 27.1354 75.1253C27.2719 75.2097 27.3406 75.3589 27.3406 75.5739C27.3406 75.7555 27.1874 76.3014 26.8821 77.2114C26.5699 78.1274 26.3913 78.6183 26.3461 78.6831C26.242 78.8392 26.0987 78.9167 25.9171 78.9167C25.7355 78.9167 25.5971 78.8696 25.5028 78.7753C25.4086 78.6811 25.3614 78.5427 25.3614 78.361L25.3595 78.362ZM25.7973 70.7684C25.7973 70.6064 25.8425 70.4797 25.9338 70.3884C26.0251 70.2971 26.1566 70.252 26.3284 70.252C26.5002 70.252 26.7525 70.3394 27.0844 70.5151C27.4417 70.7036 27.6204 70.9019 27.6204 71.11C27.6204 71.2857 27.5752 71.4193 27.4839 71.5096C27.3926 71.6009 27.2699 71.646 27.1138 71.646C26.997 71.646 26.7398 71.5449 26.3441 71.3437C26.1684 71.2524 26.0339 71.1601 25.9397 71.0658C25.8454 70.9716 25.7983 70.8724 25.7983 70.7684H25.7973ZM33.8593 76.5291C33.9889 76.5291 34.0968 76.5684 34.1813 76.646C34.2785 76.75 34.3275 76.9061 34.3275 77.1143C34.3275 77.6729 34.2529 78.1245 34.1037 78.469C33.9476 78.846 33.7365 79.0345 33.4705 79.0345C32.9895 79.0345 32.5153 78.5702 32.047 77.6405C31.6769 78.0626 31.2901 78.417 30.8866 78.7027C30.5813 78.9167 30.3535 79.0247 30.2043 79.0247C30.0551 79.0247 29.9373 78.9825 29.8538 78.8981C29.7694 78.8136 29.7272 78.6899 29.7272 78.5279C29.7272 78.3326 29.8342 78.1804 30.0492 78.0695C30.6539 77.7445 31.1929 77.2802 31.6671 76.6754C31.3814 75.7398 31.1988 74.3104 31.1212 72.3863H28.8309C28.7592 72.3863 28.7091 72.401 28.6797 72.4304C28.6502 72.4599 28.6355 72.51 28.6355 72.5816C28.6355 73.9924 28.5933 75.0899 28.5089 75.8763C28.392 76.9748 28.1967 77.7966 27.9237 78.3424C27.748 78.6801 27.5468 78.849 27.319 78.849C27.0912 78.849 26.9391 78.7675 26.8605 78.6055C26.8213 78.5279 26.8016 78.4337 26.8016 78.3228C26.8016 78.2187 26.8605 78.0557 26.9774 77.8358C27.3867 77.0946 27.6145 75.7271 27.6597 73.7322C27.6665 73.5241 27.6695 73.2158 27.6695 72.8064V72.3872C27.6695 72.0692 27.747 71.8316 27.9031 71.6755C28.0592 71.5194 28.2801 71.4418 28.5658 71.4418H31.1006L31.0613 70.5161V70.4964C31.0613 70.3276 31.1036 70.2009 31.188 70.1165C31.2724 70.0321 31.3922 69.9899 31.5483 69.9899C31.672 69.9899 31.7721 70.0291 31.8506 70.1067C31.9871 70.2432 32.0558 70.4935 32.0558 70.8577L32.0656 71.4428H33.8593C34.0085 71.4428 34.1243 71.4831 34.2048 71.5646C34.2863 71.646 34.3266 71.7648 34.3266 71.9199C34.3266 72.1673 34.2225 72.3166 34.0144 72.3686C33.9692 72.3814 33.9172 72.3882 33.8583 72.3882H32.0843C32.1236 73.7401 32.2139 74.7827 32.3572 75.517C32.5712 75.0163 32.7568 74.4479 32.9129 73.8107C33.0042 73.473 33.1367 73.2649 33.3124 73.1874C33.3576 73.1677 33.4096 73.1579 33.4685 73.1579C33.6374 73.1579 33.764 73.2001 33.8485 73.2845C33.9329 73.369 33.9751 73.4858 33.9751 73.635C33.9751 73.7842 33.8386 74.2299 33.5657 74.9505C33.2928 75.6721 33.0032 76.27 32.6979 76.7441C32.9188 77.2576 33.1004 77.5855 33.2437 77.7288C33.2761 77.7612 33.3056 77.7838 33.3311 77.7966C33.3831 77.6994 33.4126 77.4687 33.4185 77.1044C33.4312 76.7216 33.5775 76.5291 33.8573 76.5291H33.8593ZM29.093 73.9649C28.9634 73.9649 28.8603 73.9276 28.7857 73.853C28.7111 73.7783 28.6738 73.6694 28.6738 73.526C28.6738 73.3827 28.7111 73.2649 28.7857 73.1893C28.8603 73.1147 28.9624 73.0774 29.093 73.0774H30.7207C30.8699 73.0774 30.9838 73.1167 31.0623 73.1942C31.1409 73.2718 31.1791 73.3807 31.1791 73.5211C31.1791 73.6615 31.1399 73.7695 31.0623 73.8481C30.9848 73.9256 30.8709 73.9649 30.7207 73.9649H29.093ZM28.7219 76.7432V75.3589C28.7219 75.0929 28.7906 74.8906 28.9271 74.7542C29.0635 74.6177 29.255 74.549 29.5024 74.549H30.3506C30.6039 74.549 30.7992 74.6207 30.9357 74.763C31.0721 74.9064 31.1409 75.1047 31.1409 75.3579V76.752C31.1409 77.0122 31.0721 77.2105 30.9357 77.3469C30.7992 77.4834 30.598 77.5521 30.3309 77.5521H29.5024C29.255 77.5521 29.0635 77.4844 28.9271 77.3469C28.7906 77.2105 28.7219 77.0092 28.7219 76.7422V76.7432ZM30.3309 75.5837C30.3309 75.5248 30.3182 75.4826 30.2917 75.4571C30.2593 75.4247 30.2072 75.408 30.1356 75.408H29.7164C29.6516 75.408 29.6054 75.4208 29.5799 75.4473C29.5544 75.4728 29.5377 75.519 29.5308 75.5837V76.5291C29.5308 76.5939 29.5426 76.6381 29.5652 76.6607C29.5878 76.6833 29.6378 76.6951 29.7164 76.6951H30.1356C30.2131 76.6951 30.2642 76.6843 30.2868 76.6607C30.3093 76.6371 30.3241 76.5939 30.3309 76.5291V75.5837ZM33.8102 71.0599C33.8102 71.3653 33.6472 71.5184 33.3223 71.5184C33.1662 71.5184 33.0327 71.4536 32.9227 71.3231L32.5231 70.8361C32.4191 70.6997 32.367 70.5926 32.367 70.5141C32.367 70.3845 32.4063 70.2805 32.4839 70.2019C32.5614 70.1244 32.6753 70.0851 32.8255 70.0851C32.8972 70.0851 32.9777 70.1145 33.069 70.1725C33.1858 70.2569 33.3144 70.3688 33.4538 70.5092C33.5932 70.6486 33.6875 70.7595 33.7365 70.841C33.7856 70.9225 33.8102 70.9952 33.8102 71.0599Z" fill="#333333"/>
<path d="M9.26997 71.4938C9.22187 71.5547 9.19732 71.6146 9.19732 71.6754C9.19732 71.7962 9.2307 71.8904 9.29746 71.9562C9.36421 72.023 9.46042 72.0563 9.58707 72.0563C9.71371 72.0563 9.85311 71.9807 10.0043 71.8296C10.2036 71.6303 10.3214 71.3947 10.3577 71.1227C10.3636 71.056 10.3764 71.002 10.394 70.9597C10.3999 70.9421 10.4088 70.9224 10.4215 70.9008C10.4333 70.8802 10.449 70.8694 10.4667 70.8694H11.147C11.1951 70.8753 11.2305 70.8871 11.2511 70.9058C11.2717 70.9234 11.2825 70.9539 11.2825 70.9961V71.3947C11.2825 71.4614 11.2943 71.5184 11.3188 71.5665C11.4092 71.7903 11.6575 71.9022 12.062 71.9022H12.4606C12.7443 71.8963 12.9652 71.8148 13.1223 71.6578C13.2793 71.5007 13.3579 71.2621 13.3579 70.9421C13.3579 70.8753 13.3461 70.8154 13.3216 70.7605C13.2607 70.6456 13.1429 70.5887 12.9681 70.5887C12.8415 70.5887 12.7414 70.622 12.6687 70.6888C12.6147 70.7497 12.5843 70.8253 12.5784 70.9156C12.5725 71.0304 12.545 71.109 12.4969 71.1512C12.4783 71.1757 12.4429 71.1875 12.3879 71.1875H12.2338C12.1494 71.1816 12.0944 71.1659 12.0708 71.1423C12.0591 71.1306 12.0532 71.1149 12.0532 71.0972V70.7978C12.0532 70.5798 11.9972 70.4159 11.8853 70.304C11.7734 70.192 11.6084 70.1361 11.3915 70.1361H10.2949C10.1624 70.1361 10.0475 70.1606 9.95031 70.2087C9.7628 70.3059 9.66266 70.4866 9.65088 70.7526C9.64499 70.9823 9.58707 71.16 9.47908 71.2876C9.38876 71.3603 9.31905 71.43 9.27095 71.4958L9.26997 71.4938Z" fill="#333333"/>
<path d="M13.3127 74.6981C13.2283 74.6137 13.1085 74.5715 12.9524 74.5715H5.55511C5.45104 74.5715 5.36367 74.5882 5.292 74.6206C5.15554 74.6854 5.08682 74.7963 5.08682 74.9524C5.08682 75.0241 5.10351 75.0889 5.13591 75.1478C5.20757 75.2842 5.34698 75.353 5.55511 75.353H7.8013V75.6013H6.15887C5.64543 75.6013 5.38919 75.8939 5.38919 76.479V78.0861C5.38919 78.1185 5.39508 78.2167 5.39508 78.2559C5.39508 78.5023 5.45693 78.6879 5.58063 78.8116C5.72985 78.9608 5.96056 79.0354 6.27275 79.0354H12.3457C12.865 79.0354 13.1203 78.6771 13.1203 78.0861V76.372C13.1203 75.8586 12.8277 75.6023 12.2426 75.6023H10.3675V75.3539H13.0555C13.2244 75.3539 13.246 75.3147 13.3245 75.2371C13.3893 75.1723 13.4217 75.0849 13.4217 74.974C13.4217 74.8631 13.3863 74.7728 13.3147 74.7011L13.3127 74.6981ZM8.68779 75.351H9.46827V75.5994H8.68779V75.351ZM6.27275 76.5065C6.27275 76.4545 6.28256 76.4191 6.3022 76.3995C6.32772 76.374 6.36994 76.3602 6.42884 76.3602H7.49892C7.33596 76.477 7.17692 76.5713 6.85786 76.6429C6.7538 76.6753 6.66937 76.7205 6.60457 76.7794C6.54567 76.8383 6.5172 76.9237 6.5172 77.0376C6.52603 77.1858 6.70667 77.3037 6.7695 77.3694H6.27275V76.5065ZM12.224 78.0596C12.224 78.1185 12.2181 78.2068 12.1955 78.2294C12.1729 78.252 12.1356 78.2638 12.0836 78.2638H6.43375C6.37485 78.2638 6.3346 78.252 6.31202 78.2294C6.28944 78.2068 6.27275 78.1175 6.27275 78.0596V78.0125H12.225V78.0596H12.224ZM11.9579 76.3612H12.1994C12.225 76.3877 12.2338 76.4554 12.2338 76.5075V77.3704H7.27018C7.38505 77.3527 7.75515 77.1966 7.90438 77.1122C8.2686 76.9041 8.51501 76.6537 8.64558 76.3612H9.46827V76.7441C9.46827 76.8737 9.51343 76.9581 9.60473 77.0494C9.75395 77.1986 10.0171 77.2732 10.394 77.2732H11.1254C11.4955 77.2732 11.6811 77.1957 11.844 77.0396C11.954 76.9227 12.01 76.8 12.01 76.6174C12.01 76.5261 11.9962 76.4201 11.9569 76.3612H11.9579ZM11.4013 76.3602C11.3591 76.4181 11.3542 76.4702 11.3041 76.5487C11.2845 76.5811 11.2128 76.5978 11.0832 76.5978H10.5904C10.4863 76.5978 10.4176 76.5821 10.3852 76.5487C10.3724 76.5359 10.3656 76.5193 10.3656 76.4996V76.3602H11.4013Z" fill="#333333"/>
<path d="M13.189 73.7302C13.1213 73.6635 13.0153 73.6262 12.869 73.6203C12.5126 73.6026 12.1788 73.5584 11.8696 73.4887C12.0512 73.3778 12.2053 73.2727 12.3339 73.1726C12.6903 72.9154 12.869 72.7024 12.869 72.5325C12.869 72.4216 12.8336 72.3303 12.7639 72.2606C12.6648 72.1614 12.492 72.1114 12.2466 72.1114H9.70291C9.57431 72.1114 9.4781 72.1438 9.4133 72.2076C9.3544 72.2665 9.32593 72.345 9.32593 72.4442C9.32593 72.5433 9.35636 72.6238 9.41821 72.6857C9.47908 72.7475 9.57431 72.778 9.70291 72.778H9.85214C9.78734 72.8369 9.75592 72.9095 9.75592 72.9969C9.75592 73.044 9.76771 73.0862 9.79127 73.1245C9.81483 73.1628 9.85704 73.2119 9.91889 73.2737C9.98074 73.3356 10.0868 73.4151 10.2389 73.5152C10.0868 73.58 9.88453 73.635 9.63321 73.6821C9.51049 73.7116 9.41723 73.7558 9.35244 73.8137C9.29353 73.8667 9.26506 73.9452 9.26506 74.0503C9.26506 74.1494 9.29157 74.224 9.3436 74.2741C9.39662 74.3242 9.46042 74.3546 9.53602 74.3664C9.57136 74.3723 9.61554 74.3752 9.66757 74.3752C9.7196 74.3752 9.79323 74.3664 9.8865 74.3487C10.2026 74.279 10.5796 74.1416 11.0174 73.9364C11.7596 74.2231 12.3801 74.3664 12.8768 74.3664C13.0113 74.3664 13.1134 74.331 13.1841 74.2613C13.2538 74.1916 13.2892 74.0974 13.2892 73.9806C13.2892 73.8814 13.2558 73.798 13.188 73.7302H13.189ZM10.9978 73.2718C10.8604 73.2001 10.7259 73.1167 10.5943 73.0204C10.4628 72.9252 10.3734 72.8624 10.3253 72.832H11.7243C11.5211 72.9812 11.2786 73.1275 10.9978 73.2718Z" fill="#333333"/>
<path d="M8.96763 72.0938L8.94996 72.0761C8.88614 72.0241 8.80171 71.9976 8.69667 71.9976H7.90245C7.91423 71.922 7.92307 71.8582 7.92896 71.8052H8.48756C8.57493 71.8052 8.64464 71.7875 8.69667 71.7531C8.78993 71.7011 8.83607 71.6167 8.83607 71.4998C8.83607 71.4125 8.80662 71.3398 8.7487 71.2819C8.69078 71.224 8.6034 71.1945 8.48658 71.1945H7.15143C7.16321 71.1651 7.1691 71.1346 7.1691 71.1032C7.1691 71.0718 7.16321 71.0404 7.15143 71.0119C7.1102 70.902 7.00319 70.846 6.82845 70.846C6.73518 70.846 6.65664 70.8813 6.59283 70.951C6.56338 70.9805 6.5084 71.0502 6.42692 71.1602C6.3631 71.2534 6.2934 71.3467 6.21781 71.439C6.17756 71.4802 6.14222 71.5352 6.11276 71.6049C6.09509 71.6461 6.08625 71.6834 6.08625 71.7188C6.08625 71.8699 6.14418 71.9691 6.261 72.0152C6.21977 72.027 6.18247 72.0476 6.14713 72.0761C6.07742 72.134 6.04208 72.2126 6.04208 72.3117C6.04208 72.405 6.07742 72.4835 6.14713 72.5473C6.21094 72.5994 6.29536 72.6259 6.40041 72.6259H6.99435C6.86673 72.7888 6.64191 72.9106 6.32187 72.9921C6.24039 73.0156 6.17363 73.0529 6.1216 73.1059C6.06957 73.159 6.04306 73.2336 6.04306 73.3327C6.04306 73.4319 6.07448 73.5134 6.13927 73.5772C6.20308 73.641 6.28457 73.6734 6.38372 73.6734C6.47698 73.6734 6.59578 73.642 6.74107 73.5772C7.03166 73.4495 7.26728 73.2866 7.44792 73.0883C7.48326 73.1236 7.5294 73.1491 7.58732 73.1668C7.79054 73.2601 7.94761 73.3416 8.05855 73.4113C8.26176 73.5448 8.42179 73.6115 8.53861 73.6115C8.65544 73.6115 8.74478 73.5801 8.80957 73.5153C8.86749 73.4574 8.89694 73.3818 8.89694 73.2885C8.89694 73.2188 8.86062 73.1462 8.78797 73.0706C8.71532 72.995 8.57984 72.9194 8.38251 72.8438C8.08014 72.7221 7.86711 72.6514 7.74538 72.6347V72.6259H8.69667C8.77226 72.6259 8.83902 72.6111 8.89694 72.5827C9.00198 72.5306 9.05402 72.4403 9.05402 72.3117C9.05402 72.2243 9.02457 72.1517 8.96664 72.0938H8.96763ZM7.18776 71.9976H6.56829C6.63799 71.9622 6.71063 71.8984 6.78623 71.8052H7.20543C7.19954 71.8807 7.19365 71.9446 7.18776 71.9976Z" fill="#333333"/>
<path d="M5.08682 73.6409V70.9706C5.08682 70.6761 5.15554 70.4571 5.29397 70.3128C5.41275 70.194 5.59143 70.1342 5.82999 70.1342H8.89003C9.03435 70.1342 9.14037 70.1685 9.21007 70.2372C9.27879 70.306 9.31316 70.3973 9.31316 70.5102C9.31316 70.6172 9.27879 70.7045 9.21007 70.7733C9.14135 70.842 9.03435 70.8763 8.89003 70.8763H6.04106C5.99099 70.8763 5.95958 70.8822 5.94681 70.895C5.92129 70.9205 5.90951 70.9608 5.90951 71.0167V73.4985C5.90951 73.5545 5.92031 73.5938 5.94289 73.6163C5.96449 73.6379 5.99787 73.6497 6.04204 73.6497H8.77812C8.93519 73.6497 9.05103 73.687 9.12565 73.7626C9.18848 73.8254 9.21989 73.9069 9.21989 74.0071C9.21989 74.12 9.17866 74.2093 9.09816 74.2751C9.01668 74.3409 8.90967 74.3742 8.77812 74.3742H5.85453C5.54725 74.3742 5.40588 74.3026 5.26746 74.1583C5.14867 74.0395 5.08878 73.8667 5.08878 73.6409H5.08682Z" fill="#333333"/>
</svg>
